HIERARCHY
ROOT Hips
{
    OFFSET 0.000000 0.928721 -0.042845
    CHANNELS 6 Xposition Yposition Zposition Zrotation Xrotation Yrotation
    JOINT LeftUpLeg
    {
        OFFSET 0.083489 -0.088681 0.000333
        CHANNELS 3 Zrotation Xrotation Yrotation
        JOINT LeftLeg
        {
            OFFSET 0.034542 -0.354724 0.001330
            CHANNELS 3 Zrotation Xrotation Yrotation
            JOINT LeftFoot
            {
                OFFSET 0.007784 -0.378921 0.071573
                CHANNELS 3 Zrotation Xrotation Yrotation
                JOINT LeftToeBase
                {
                    OFFSET 0.000055 -0.078215 -0.096185
                    CHANNELS 3 Zrotation Xrotation Yrotation
                    End Site
                    {
                        OFFSET 0.000071 0.000000 -0.123972
                    }
                }
            }
        }
    }
    JOINT RightUpLeg
    {
        OFFSET -0.083451 -0.088681 0.000285
        CHANNELS 3 Zrotation Xrotation Yrotation
        JOINT RightLeg
        {
            OFFSET -0.034581 -0.354724 0.001138
            CHANNELS 3 Zrotation Xrotation Yrotation
            JOINT RightFoot
            {
                OFFSET -0.007784 -0.378921 0.072528
                CHANNELS 3 Zrotation Xrotation Yrotation
                JOINT RightToeBase
                {
                    OFFSET -0.006381 -0.069199 -0.095002
                    CHANNELS 3 Zrotation Xrotation Yrotation
                    End Site
                    {
                        OFFSET -0.007888 0.000000 -0.117441
                    }
                }
            }
        }
    }
    JOINT Spine02
    {
        OFFSET 0.000526 0.122996 0.013402
        CHANNELS 3 Zrotation Xrotation Yrotation
        JOINT Spine01
        {
            OFFSET 0.000526 0.122996 0.013402
            CHANNELS 3 Zrotation Xrotation Yrotation
            JOINT Spine
            {
                OFFSET 0.000526 0.122996 0.013402
                CHANNELS 3 Zrotation Xrotation Yrotation
                JOINT LeftShoulder
                {
                    OFFSET 0.037787 0.017717 0.013840
                    CHANNELS 3 Zrotation Xrotation Yrotation
                    JOINT LeftArm
                    {
                        OFFSET 0.151147 0.000000 0.013840
                        CHANNELS 3 Zrotation Xrotation Yrotation
                        JOINT LeftForeArm
                        {
                            OFFSET 0.084948 -0.230118 0.024381
                            CHANNELS 3 Zrotation Xrotation Yrotation
                            JOINT LeftHand
                            {
                                OFFSET 0.104618 -0.204084 -0.101129
                                CHANNELS 3 Zrotation Xrotation Yrotation
                                End Site
                                {
                                    OFFSET 0.026710 -0.238122 -0.073529
                                }
                            }
                        }
                    }
                }
                JOINT RightShoulder
                {
                    OFFSET -0.038418 0.017717 0.014059
                    CHANNELS 3 Zrotation Xrotation Yrotation
                    JOINT RightArm
                    {
                        OFFSET -0.153671 0.000000 0.014059
                        CHANNELS 3 Zrotation Xrotation Yrotation
                        JOINT RightForeArm
                        {
                            OFFSET -0.084948 -0.230118 0.025399
                            CHANNELS 3 Zrotation Xrotation Yrotation
                            JOINT RightHand
                            {
                                OFFSET -0.104617 -0.204083 -0.102750
                                CHANNELS 3 Zrotation Xrotation Yrotation
                                End Site
                                {
                                    OFFSET -0.044136 -0.235575 -0.075556
                                }
                            }
                        }
                    }
                }
                JOINT neck
                {
                    OFFSET 0.000923 0.092539 0.010084
                    CHANNELS 3 Zrotation Xrotation Yrotation
                    JOINT Head
                    {
                        OFFSET 0.000655 0.065599 0.007148
                        CHANNELS 3 Zrotation Xrotation Yrotation
                        JOINT head_end
                        {
                            OFFSET 0.001910 0.189245 -0.032366
                            CHANNELS 3 Zrotation Xrotation Yrotation
                            End Site
                            {
                                OFFSET 0.001661 0.164608 -0.028153
                            }
                        }
                        JOINT headfront
                        {
                            OFFSET 0.000000 0.000000 -0.142010
                            CHANNELS 3 Zrotation Xrotation Yrotation
                            End Site
                            {
                                OFFSET 0.000000 0.000000 -0.167006
                            }
                        }
                    }
                }
            }
        }
    }
}
MOTION
Frames: 16
Frame Time: 0.041667
0.000000 0.000000 0.000000 0.000000 0.000000 42.000001 0.000000 0.000000 0.000000 0.000000 0.000000 0.000000 0.000000 0.000000 0.000000 0.000000 0.000000 0.000000 0.000000 0.000000 0.000000 0.000000 0.000000 0.000000 0.000000 0.000000 0.000000 0.000000 0.000000 0.000000 0.000000 0.000000 0.000000 0.000000 0.000000 0.000000 0.000000 0.000000 0.000000 0.000000 0.000000 0.000000 0.000000 0.000000 0.000000 0.000000 0.000000 0.000000 0.000000 0.000000 0.000000 0.000000 0.000000 0.000000 0.000000 0.000000 0.000000 0.000000 0.000000 0.000000 0.000000 0.000000 0.000000 1.000000 -2.000000 0.000000 0.000000 0.000000 0.000000 0.000000 0.000000 0.000000 0.000000 0.000000 0.000000
0.000000 0.000000 0.000000 0.000000 0.000000 42.000001 0.000000 0.000000 0.000000 0.000000 0.000000 0.000000 0.000000 0.000000 0.000000 0.000000 0.000000 0.000000 0.000000 0.000000 0.000000 0.000000 0.000000 0.000000 0.000000 0.000000 0.000000 0.000000 0.000000 0.000000 0.000000 0.000000 0.000000 0.000000 0.000000 0.000000 0.000000 0.000000 0.000000 0.000000 0.000000 0.000000 0.000000 31.000000 0.000000 0.000000 0.000000 0.000000 0.000000 0.000000 0.000000 0.000000 0.000000 0.000000 0.000000 23.000000 0.000000 0.000000 0.000000 0.000000 0.000000 0.000000 0.000000 0.000000 2.000000 0.000000 0.000000 0.000000 0.000000 0.000000 0.000000 0.000000 0.000000 0.000000 0.000000
0.000000 0.000000 0.000000 0.000000 0.000000 42.000001 0.000000 0.000000 0.000000 0.000000 0.000000 0.000000 0.000000 0.000000 0.000000 0.000000 0.000000 0.000000 0.000000 0.000000 0.000000 0.000000 0.000000 0.000000 0.000000 0.000000 0.000000 0.000000 0.000000 0.000000 0.000000 0.000000 0.000000 0.000000 0.000000 0.000000 0.000000 0.000000 0.000000 0.000000 0.000000 0.000000 8.090997 37.470428 -7.477187 -45.219656 5.940599 14.485660 0.000000 0.000000 0.000000 0.000000 0.000000 0.000000 -11.087500 36.010643 10.166785 64.754979 4.479635 4.856396 0.000000 0.000000 0.000000 0.000000 4.000000 0.000000 0.000000 0.000000 0.000000 0.000000 0.000000 0.000000 0.000000 0.000000 0.000000
0.000000 0.000000 0.000000 0.000000 0.000000 42.000001 0.000000 0.000000 0.000000 0.000000 0.000000 0.000000 0.000000 0.000000 0.000000 0.000000 0.000000 0.000000 0.000000 0.000000 0.000000 0.000000 0.000000 0.000000 0.000000 0.000000 0.000000 0.000000 0.000000 0.000000 0.000000 0.000000 0.000000 0.000000 0.000000 0.000000 0.000000 0.000000 0.000000 0.000000 0.000000 0.000000 9.985209 50.255143 -0.506493 -111.092916 -41.396235 15.419505 11.999999 0.000000 0.000000 0.000000 0.000000 0.000000 -12.350008 40.783043 11.796438 113.539873 -9.413830 21.321522 -26.943515 -3.565219 -1.814791 0.000000 5.000000 0.000000 0.000000 0.000000 0.000000 0.000000 0.000000 0.000000 0.000000 0.000000 0.000000
0.000000 0.000000 0.000000 0.000000 0.000000 42.000001 0.000000 0.000000 0.000000 0.000000 0.000000 0.000000 0.000000 0.000000 0.000000 0.000000 0.000000 0.000000 0.000000 0.000000 0.000000 0.000000 0.000000 0.000000 0.000000 0.000000 0.000000 0.000000 0.000000 0.000000 0.000000 0.000000 0.000000 0.000000 0.000000 0.000000 0.000000 0.000000 0.000000 0.000000 0.000000 0.000000 12.265099 67.187357 -3.668828 -121.318018 -26.706265 12.786638 21.992706 -3.994536 0.209174 0.000000 0.000000 0.000000 -9.816133 43.306491 10.303085 153.835246 24.100630 28.261366 -45.633511 -11.533496 -12.743297 0.000000 7.000000 0.000000 0.000000 0.000000 0.000000 0.000000 0.000000 0.000000 0.000000 0.000000 0.000000
0.000000 0.000000 0.000000 0.000000 0.000000 42.000001 0.000000 0.000000 0.000000 0.000000 0.000000 0.000000 0.000000 0.000000 0.000000 0.000000 0.000000 0.000000 0.000000 0.000000 0.000000 0.000000 0.000000 0.000000 0.000000 0.000000 0.000000 0.000000 0.000000 0.000000 0.000000 0.000000 0.000000 0.000000 0.000000 0.000000 0.000000 0.000000 0.000000 0.000000 0.000000 0.000000 12.265099 67.187357 -3.668828 -124.139818 -21.300952 11.615501 21.992706 -3.994536 0.209174 0.000000 0.000000 0.000000 -9.816133 43.306491 10.303085 158.073573 24.063388 26.887213 -48.643697 -11.853111 -13.377079 0.000000 9.000000 0.000000 0.000000 0.000000 0.000000 0.000000 0.000000 0.000000 0.000000 0.000000 0.000000
0.000000 0.000000 0.000000 0.000000 0.000000 42.000001 0.000000 0.000000 0.000000 0.000000 0.000000 0.000000 0.000000 0.000000 0.000000 0.000000 0.000000 0.000000 0.000000 0.000000 0.000000 0.000000 0.000000 0.000000 0.000000 0.000000 0.000000 0.000000 0.000000 0.000000 0.000000 0.000000 0.000000 0.000000 0.000000 0.000000 0.000000 0.000000 0.000000 0.000000 0.000000 0.000000 12.265099 67.187357 -3.668828 -126.030570 -22.669725 10.866722 21.992706 -3.994536 0.209174 0.000000 0.000000 0.000000 -9.816133 43.306491 10.303085 156.026999 23.124515 27.719680 -48.643697 -11.853111 -13.377079 0.000000 14.000000 0.000000 0.000000 0.000000 0.000000 0.000000 0.000000 0.000000 0.000000 0.000000 0.000000
0.000000 0.000000 0.000000 0.000000 0.000000 42.000001 0.000000 0.000000 0.000000 0.000000 0.000000 0.000000 0.000000 0.000000 0.000000 0.000000 0.000000 0.000000 0.000000 0.000000 0.000000 0.000000 0.000000 0.000000 0.000000 0.000000 0.000000 0.000000 0.000000 0.000000 0.000000 0.000000 0.000000 0.000000 0.000000 0.000000 0.000000 0.000000 0.000000 0.000000 0.000000 0.000000 12.265099 67.187357 -3.668828 -126.030570 -24.669723 10.866722 21.992706 -3.994536 0.209174 0.000000 0.000000 0.000000 -9.816133 43.306491 10.303085 155.008651 25.647389 28.156274 -48.643697 -11.853111 -13.377079 0.000000 17.000000 0.000000 0.000000 0.000000 0.000000 0.000000 0.000000 0.000000 0.000000 0.000000 0.000000
0.000000 0.000000 0.000000 0.000000 0.000000 42.000001 0.000000 0.000000 0.000000 0.000000 0.000000 0.000000 0.000000 0.000000 0.000000 0.000000 0.000000 0.000000 0.000000 0.000000 0.000000 0.000000 0.000000 0.000000 0.000000 0.000000 0.000000 0.000000 0.000000 0.000000 0.000000 0.000000 0.000000 0.000000 0.000000 0.000000 0.000000 0.000000 0.000000 0.000000 0.000000 0.000000 12.265099 67.187357 -3.668828 -126.030570 -22.669725 10.866722 21.992706 -3.994536 0.209174 0.000000 0.000000 0.000000 -9.816133 43.306491 10.303085 156.026999 23.124515 27.719680 -48.643697 -11.853111 -13.377079 0.000000 14.000000 0.000000 0.000000 0.000000 0.000000 0.000000 0.000000 0.000000 0.000000 0.000000 0.000000
0.000000 0.000000 0.000000 0.000000 0.000000 42.000001 0.000000 0.000000 0.000000 0.000000 0.000000 0.000000 0.000000 0.000000 0.000000 0.000000 0.000000 0.000000 0.000000 0.000000 0.000000 0.000000 0.000000 0.000000 0.000000 0.000000 0.000000 0.000000 0.000000 0.000000 0.000000 -2.000000 0.000000 0.000000 0.000000 0.000000 0.000000 0.000000 0.000000 0.000000 0.000000 0.000000 12.265099 67.187357 -3.668828 -126.030570 -22.669725 10.866722 21.992706 -3.994536 0.209174 0.000000 0.000000 0.000000 -9.816133 43.306491 10.303085 156.026999 23.124515 27.719680 -48.643697 -11.853111 -13.377079 0.000000 13.000000 0.000000 0.000000 0.000000 0.000000 0.000000 0.000000 0.000000 0.000000 0.000000 0.000000
0.000000 0.000000 0.000000 0.000000 0.000000 42.000001 0.000000 0.000000 0.000000 0.000000 0.000000 0.000000 0.000000 0.000000 0.000000 0.000000 0.000000 0.000000 0.000000 0.000000 0.000000 0.000000 0.000000 0.000000 0.000000 0.000000 0.000000 0.000000 0.000000 0.000000 0.000000 -4.000000 0.000000 0.000000 0.000000 0.000000 0.000000 0.000000 0.000000 0.000000 0.000000 0.000000 12.265099 67.187357 -3.668828 -126.030570 -22.669725 10.866722 21.992706 -3.994536 0.209174 0.000000 0.000000 0.000000 -9.816133 43.306491 10.303085 156.026999 23.124515 27.719680 -48.643697 -11.853111 -13.377079 0.000000 13.000000 0.000000 0.000000 0.000000 0.000000 0.000000 0.000000 0.000000 0.000000 0.000000 0.000000
0.000000 0.000000 0.000000 0.000000 0.000000 42.000001 0.000000 0.000000 0.000000 0.000000 0.000000 0.000000 0.000000 0.000000 0.000000 0.000000 0.000000 0.000000 0.000000 0.000000 0.000000 0.000000 0.000000 0.000000 0.000000 0.000000 0.000000 0.000000 0.000000 0.000000 0.000000 -4.000000 0.000000 0.000000 0.000000 0.000000 0.000000 0.000000 0.000000 0.000000 0.000000 0.000000 11.489401 67.224538 -1.824993 -126.030570 -22.669725 10.866722 21.992706 -3.994536 0.209174 0.000000 0.000000 0.000000 -8.343030 43.552585 8.928083 156.026999 23.124515 27.719680 -48.643697 -11.853111 -13.377079 0.000000 13.000000 0.000000 0.000000 0.000000 0.000000 0.000000 0.000000 0.000000 0.000000 0.000000 0.000000
0.000000 0.000000 0.000000 0.000000 0.000000 42.000001 0.000000 0.000000 0.000000 0.000000 0.000000 0.000000 0.000000 0.000000 0.000000 0.000000 0.000000 0.000000 0.000000 0.000000 0.000000 0.000000 0.000000 0.000000 0.000000 0.000000 0.000000 0.000000 0.000000 0.000000 0.000000 -2.000000 0.000000 0.000000 0.000000 0.000000 0.000000 0.000000 0.000000 0.000000 0.000000 0.000000 12.265099 67.187357 -3.668828 -126.030570 -22.669725 10.866722 21.992706 -3.994536 0.209174 0.000000 0.000000 0.000000 -9.816133 43.306491 10.303085 156.026999 23.124515 27.719680 -48.643697 -11.853111 -13.377079 0.000000 13.000000 0.000000 0.000000 0.000000 0.000000 0.000000 0.000000 0.000000 0.000000 0.000000 0.000000
0.000000 0.000000 0.000000 0.000000 0.000000 42.000001 0.000000 0.000000 0.000000 0.000000 0.000000 0.000000 0.000000 0.000000 0.000000 0.000000 0.000000 0.000000 0.000000 0.000000 0.000000 0.000000 0.000000 0.000000 0.000000 0.000000 0.000000 0.000000 0.000000 0.000000 0.000000 -2.000000 0.000000 0.000000 0.000000 0.000000 0.000000 0.000000 0.000000 0.000000 0.000000 0.000000 12.265099 67.187357 -3.668828 -126.030570 -22.669725 10.866722 21.992706 -3.994536 0.209174 0.000000 0.000000 0.000000 -9.816133 43.306491 10.303085 156.026999 20.124515 27.719680 -48.643697 -11.853111 -13.377079 0.000000 13.000000 0.000000 0.000000 0.000000 0.000000 0.000000 0.000000 0.000000 0.000000 0.000000 0.000000
0.000000 0.000000 0.000000 0.000000 0.000000 42.000001 0.000000 0.000000 0.000000 0.000000 0.000000 0.000000 0.000000 0.000000 0.000000 0.000000 0.000000 0.000000 0.000000 0.000000 0.000000 0.000000 0.000000 0.000000 0.000000 0.000000 0.000000 0.000000 0.000000 0.000000 0.000000 -5.000000 0.000000 0.000000 0.000000 0.000000 0.000000 0.000000 0.000000 0.000000 0.000000 0.000000 12.265099 49.187357 -3.668828 -111.920710 -44.722710 23.257936 21.992706 -3.994536 0.209174 0.000000 0.000000 0.000000 -15.562196 33.071188 14.488958 145.433817 25.843965 35.916112 -48.643697 -11.853111 -13.377079 0.000000 15.000000 0.000000 0.000000 0.000000 0.000000 0.000000 0.000000 0.000000 0.000000 0.000000 0.000000
0.000000 0.000000 0.000000 0.000000 0.000000 42.000001 0.000000 0.000000 0.000000 0.000000 0.000000 0.000000 0.000000 0.000000 0.000000 0.000000 0.000000 0.000000 0.000000 0.000000 0.000000 0.000000 0.000000 0.000000 0.000000 0.000000 0.000000 0.000000 0.000000 0.000000 0.000000 -5.000000 0.000000 0.000000 0.000000 0.000000 0.000000 0.000000 0.000000 0.000000 0.000000 0.000000 12.265099 49.187357 -3.668828 -92.805763 -93.192808 65.481043 21.992706 15.005464 0.209174 0.000000 0.000000 0.000000 -15.562196 33.071188 14.488958 148.510561 102.421309 23.334568 -48.643697 -11.853111 -13.377079 0.000000 11.999999 0.000000 0.000000 0.000000 0.000000 0.000000 0.000000 0.000000 0.000000 0.000000 0.000000
